<?xml version="1.0" encoding="UTF-8"?>
<svg width="295px" height="127px" viewBox="0 0 295 127" version="1.1" xmlns="http://www.w3.org/2000/svg" xmlns:xlink="http://www.w3.org/1999/xlink">
    <title>logo_hsb</title>
    <g id="formular" stroke="none" stroke-width="1" fill="none" fill-rule="evenodd">
        <g id="logo_hsb" fill="#FFFFFF" fill-rule="nonzero">
            <polygon id="Path" points="20 14 34 0 48 14 34 28"></polygon>
            <polygon id="Path" points="40 33 54 19 68 33 54 47"></polygon>
            <polygon id="Path" points="0 32.9776536 13.9776536 19 48 53.0223464 34.0223464 67"></polygon>
            <polygon id="Path" points="73 106.973406 52.9684729 127 39 113.018222 59.0315271 92.9916277 39 72.9650332 52.9684729 59 73 79.0265944 93.0315271 59 107 72.9650332 86.9684729 92.9916277 107 113.018222 93.0315271 127"></polygon>
            <polygon id="Path" points="174.964029 35 187 35 187 96 174.964029 96 174.964029 69.2794913 150.119904 69.2794913 150.119904 96 138 96 138 35 150.119904 35 150.119904 59.5419372 174.964029 59.5419372"></polygon>
            <path d="M238.995022,42 L238.995022,42 C238.995022,42 238.995022,42 238.995022,42 C239.055022,42.08 238.955022,41.92 238.995022,42 L238.995022,42 Z" id="Path"></path>
            <path d="M224.962236,61.4839979 L217.152568,59.1371983 C212.616314,57.6828437 210.78852,55.4352046 210.78852,51.8158447 C210.78852,47.3866737 213.879154,44.1309024 219.512085,44.1309024 C225.07855,44.1309024 228.883686,46.2628541 231.160121,49.5351522 C231.176737,49.5682057 231.691843,50.3284365 231.708459,50.36149 L239.268882,42.8418153 C235.962236,38.2143232 229.996979,34 219.512085,34 C204.424471,34 198.425982,43.0401364 198.425982,52.5264953 C198.425982,60.112277 202.247734,66.0784365 212.965257,69.4333683 L220.691843,71.7801679 C225.327795,73.2179958 227.60423,75.3995278 227.60423,79.1841553 C227.60423,83.7951207 224.148036,86.8690976 217.883686,86.8690976 C211.851964,86.8690976 208.512085,85.0346275 206.268882,82.406873 L206.268882,82.406873 C206.268882,82.406873 206.23565,82.3572928 206.185801,82.2911857 C206.036254,82.1259182 205.903323,81.9441238 205.770393,81.7623295 C205.222054,81.0682057 204.324773,79.8782791 203.410876,78.5396118 L196,85.9270724 C198.592145,90.7033054 204.507553,97 217.916918,97 C230.728097,97 240,90.1248688 240,78.2917104 C239.950151,70.5241343 235.962236,64.9215635 224.962236,61.4839979 L224.962236,61.4839979 Z" id="Path"></path>
            <path d="M271.328996,86.2459416 C279.475836,86.2459416 282.486989,83.357684 282.486989,77.8452381 C282.486989,72.6958874 279.55948,69.362013 271.328996,69.362013 L262.094796,69.362013 L262.094796,86.2294372 L271.328996,86.2294372 L271.328996,86.2459416 Z M269.957249,59.6244589 C277,59.6244589 279.375465,56.7362013 279.375465,52.0489719 C279.375465,47.6258117 277,44.7375541 269.856877,44.7375541 L262.078067,44.7375541 L262.078067,59.6244589 L269.957249,59.6244589 L269.957249,59.6244589 Z M250.016729,35 L271.412639,35 C286.133829,35 291.804833,41.5027056 291.804833,51.0587121 C291.804833,57.825487 288.425651,61.9845779 283.022305,63.7835498 C289.245353,65.2359307 295,70.0056818 295,78.6704545 C295,91.4778139 285.849442,96 271.680297,96 L250,96 L250,35 L250.016729,35 Z" id="Shape"></path>
        </g>
    </g>
</svg>